<?xml version="1.0" encoding="utf-8"?>
<!-- Generator: Adobe Illustrator 25.1.0, SVG Export Plug-In . SVG Version: 6.00 Build 0)  -->
<svg version="1.1" id="Calque_1" xmlns="http://www.w3.org/2000/svg" xmlns:xlink="http://www.w3.org/1999/xlink" x="0px" y="0px"
	 viewBox="0 0 653.8 200.8" style="enable-background:new 0 0 653.8 200.8;" xml:space="preserve">
<style type="text/css">
	.st0{fill:#00A35C;}
</style>
<g>
	<path d="M87.9,82.9H30V122h67.9v24.2h-98V0h97.8v24.4H30v34.8h57.8L87.9,82.9L87.9,82.9z"/>
	<path d="M141.9,40.1c0-2.1-0.7-3.7-2.2-4.8s-4.1-2.3-7.9-3.5c-3.8-1.2-6.8-2.4-9-3.6c-6.1-3.3-9.1-7.7-9.1-13.2
		c0-2.9,0.8-5.5,2.4-7.7s4-4,7-5.3s6.5-1.9,10.2-1.9c3.8,0,7.2,0.7,10.2,2.1s5.3,3.3,6.9,5.8c1.6,2.5,2.5,5.4,2.5,8.6h-11
		c0-2.4-0.8-4.3-2.3-5.7s-3.7-2-6.5-2c-2.7,0-4.8,0.6-6.3,1.7s-2.2,2.6-2.2,4.5c0,1.7,0.9,3.2,2.6,4.4c1.7,1.2,4.3,2.3,7.7,3.3
		c6.3,1.9,10.8,4.2,13.7,7s4.3,6.3,4.3,10.4c0,4.6-1.7,8.2-5.2,10.9c-3.5,2.6-8.2,3.9-14.1,3.9c-4.1,0-7.8-0.8-11.2-2.3
		c-3.4-1.5-5.9-3.6-7.7-6.2c-1.8-2.6-2.7-5.6-2.7-9.1h11c0,5.9,3.5,8.8,10.5,8.8c2.6,0,4.7-0.5,6.1-1.6
		C141.1,43.5,141.9,42,141.9,40.1z"/>
	<path d="M171.3,35.3v18.8h-11V0.7h20.8c4,0,7.5,0.7,10.6,2.2s5.4,3.5,7,6.2s2.5,5.8,2.5,9.2c0,5.2-1.8,9.3-5.4,12.4
		s-8.5,4.5-14.9,4.5h-9.6V35.3z M171.3,26.4h9.8c2.9,0,5.1-0.7,6.6-2.1s2.3-3.3,2.3-5.9s-0.8-4.7-2.3-6.3s-3.7-2.4-6.4-2.5h-10.1
		L171.3,26.4L171.3,26.4z"/>
	<path d="M232.3,43.1H213l-3.7,11h-11.7l19.9-53.3h10.2l20,53.3H236L232.3,43.1z M216,34.2h13.3l-6.7-20L216,34.2z"/>
	<path d="M294.5,36.3c-0.4,5.7-2.5,10.3-6.4,13.6c-3.8,3.3-8.9,4.9-15.1,4.9c-6.8,0-12.2-2.3-16.1-6.9S251,37,251,28.9v-3.3
		c0-5.1,0.9-9.6,2.7-13.6c1.8-3.9,4.4-6.9,7.7-9c3.5-2,7.4-3,11.8-3c6.2,0,11.1,1.6,14.9,4.9s5.9,7.9,6.5,13.9h-11
		c-0.3-3.4-1.2-5.9-2.9-7.5c-1.6-1.6-4.2-2.3-7.5-2.3c-3.7,0-6.4,1.3-8.2,3.9c-1.8,2.6-2.8,6.7-2.8,12.2v4c0,5.8,0.9,10,2.6,12.6
		c1.7,2.7,4.5,4,8.3,4c3.4,0,5.9-0.8,7.6-2.3c1.7-1.6,2.6-3.9,2.9-7.2h10.9V36.3z"/>
	<path d="M333.8,31h-21.1v14.3h24.8v8.8h-35.7V0.7h35.7v8.9h-24.7v12.7h21.1L333.8,31L333.8,31z"/>
	<path d="M172.3,145.7H157l-29.8-48.8v48.8H112V71.5h15.3l29.8,48.9V71.5h15.2V145.7z"/>
	<path d="M241.5,83.9h-22.7v61.8h-15.3V83.9h-22.4V71.5h60.4V83.9z"/>
	<path d="M277.7,118.5h-12.2v27.2h-15.3V71.5h27.6c8.8,0,15.5,2,20.3,5.9s7.1,9.4,7.1,16.6c0,5.1-1.1,9.3-3.3,12.7
		c-2.2,3.4-5.5,6.1-10,8.1l16.1,30.3v0.7h-16.4L277.7,118.5z M265.5,106.1h12.3c3.8,0,6.8-1,8.9-2.9c2.1-2,3.2-4.6,3.2-8.1
		s-1-6.3-3-8.3s-5-3-9.1-3h-12.3V106.1z"/>
	<path d="M361.5,113.5h-29.4v19.9h34.5v12.3h-49.7V71.5h49.6v12.4h-34.4v17.7h29.4V113.5z"/>
	<path d="M390.9,119.6v26.1h-15.3V71.5h28.9c5.6,0,10.5,1,14.7,3.1c4.2,2,7.5,4.9,9.8,8.7c2.3,3.8,3.4,8,3.4,12.8
		c0,7.3-2.5,13-7.5,17.2c-5,4.2-11.9,6.3-20.7,6.3C404.2,119.6,390.9,119.6,390.9,119.6z M390.9,107.2h13.7c4,0,7.1-1,9.3-2.9
		c2.1-1.9,3.2-4.6,3.2-8.2s-1.1-6.6-3.2-8.8c-2.1-2.2-5.1-3.4-8.9-3.5h-14v23.4H390.9z"/>
	<path d="M470.4,118.5h-12.2v27.2h-15.3V71.5h27.6c8.8,0,15.5,2,20.3,5.9s7.1,9.4,7.1,16.6c0,5.1-1.1,9.3-3.3,12.7
		c-2.2,3.4-5.5,6.1-10,8.1l16.1,30.3v0.7h-16.4L470.4,118.5z M458.2,106.1h12.3c3.8,0,6.8-1,8.9-2.9c2.1-2,3.2-4.6,3.2-8.1
		s-1-6.3-3-8.3s-5-3-9.1-3h-12.3V106.1z"/>
	<path d="M525.8,145.7h-15.3V71.5h15.3V145.7z"/>
	<path d="M578.4,126.2c0-2.9-1-5.1-3.1-6.7c-2-1.5-5.7-3.2-11-4.9c-5.3-1.7-9.5-3.4-12.6-5.1c-8.4-4.6-12.6-10.7-12.6-18.4
		c0-4,1.1-7.6,3.4-10.7s5.5-5.6,9.7-7.4s9-2.7,14.2-2.7c5.3,0,10,1,14.2,2.9c4.1,1.9,7.4,4.6,9.7,8.1s3.4,7.5,3.4,11.9h-15.3
		c0-3.4-1.1-6-3.2-7.9c-2.1-1.9-5.1-2.8-9-2.8c-3.7,0-6.6,0.8-8.7,2.4s-3.1,3.7-3.1,6.2c0,2.4,1.2,4.4,3.6,6.1
		c2.4,1.6,6,3.2,10.7,4.6c8.7,2.6,15,5.9,19,9.7c4,3.9,6,8.7,6,14.5c0,6.4-2.4,11.5-7.3,15.1c-4.9,3.7-11.4,5.5-19.6,5.5
		c-5.7,0-10.9-1-15.6-3.1s-8.3-5-10.7-8.6s-3.7-7.8-3.7-12.6h15.3c0,8.2,4.9,12.3,14.7,12.3c3.6,0,6.5-0.7,8.5-2.2
		C577.4,130.9,578.4,128.9,578.4,126.2z"/>
	<path d="M648.8,113.5h-29.4v19.9h34.5v12.3h-49.7V71.5h49.6v12.4h-34.4v17.7h29.4L648.8,113.5L648.8,113.5z"/>
	<g>
		<path class="st0" d="M562.6,187v13.8h-8v-39h15.2c2.9,0,5.5,0.5,7.7,1.6s3.9,2.6,5.1,4.6c1.2,2,1.8,4.2,1.8,6.7
			c0,3.8-1.3,6.8-3.9,9c-2.6,2.2-6.2,3.3-10.9,3.3L562.6,187L562.6,187z M562.6,180.5h7.2c2.1,0,3.7-0.5,4.9-1.5s1.7-2.4,1.7-4.3
			c0-1.9-0.6-3.5-1.7-4.6c-1.1-1.2-2.7-1.8-4.7-1.8h-7.4V180.5z"/>
		<path class="st0" d="M607.3,192.7h-14.1l-2.7,8h-8.6l14.5-39h7.5l14.6,39H610L607.3,192.7z M595.3,186.2h9.8l-4.9-14.6
			L595.3,186.2z"/>
		<path class="st0" d="M653.7,182.1c0,3.8-0.7,7.2-2,10.1c-1.4,2.9-3.3,5.1-5.8,6.7c-2.5,1.6-5.4,2.4-8.7,2.4
			c-3.2,0-6.1-0.8-8.7-2.3s-4.5-3.8-5.9-6.7s-2.1-6.2-2.1-10v-1.9c0-3.8,0.7-7.2,2.1-10.1c1.4-2.9,3.3-5.2,5.9-6.7
			c2.5-1.6,5.4-2.3,8.7-2.3s6.1,0.8,8.7,2.3c2.5,1.6,4.5,3.8,5.9,6.7s2.1,6.3,2.1,10.1v1.7H653.7z M645.5,180.4
			c0-4.1-0.7-7.2-2.2-9.3s-3.6-3.2-6.3-3.2s-4.8,1-6.2,3.1c-1.5,2.1-2.2,5.2-2.2,9.2v1.9c0,4,0.7,7.1,2.2,9.3s3.6,3.3,6.3,3.3
			s4.8-1.1,6.2-3.2c1.4-2.1,2.2-5.2,2.2-9.3V180.4z"/>
	</g>
</g>
</svg>
